<svg width="102" height="102" viewBox="0 0 102 102" fill="none" xmlns="http://www.w3.org/2000/svg">
<g clip-path="url(#clip0_1141_64)">
<path d="M81.563 25.8338H87.4584V29.1552C87.4584 31.421 89.312 33.2748 91.5775 33.2748C93.843 33.2748 95.6965 31.421 95.6965 29.1552V22.1004C95.6965 19.6287 93.6885 17.5946 91.1913 17.5946H81.563C79.2975 17.5946 77.444 19.4485 77.444 21.7142C77.444 23.98 79.2718 25.8338 81.563 25.8338Z" fill="#39D3C6"/>
<path d="M51.0562 17.5946H68.9226C71.394 17.5946 73.4278 19.6029 73.4278 22.1004V29.1552C73.4278 31.421 71.5742 33.2748 69.3087 33.2748C67.0433 33.2748 65.1897 31.421 65.1897 29.1552V25.8338H51.0819H50.2839H27.9895V73.0804H39.909C41.1447 73.0804 42.3289 73.5696 43.2042 74.445C44.0795 75.3204 44.5687 76.5048 44.5429 77.7407L44.4399 87.7822L59.7834 74.2133C60.633 73.4666 61.7142 73.0546 62.847 73.0546H93.4052C95.6707 73.0546 97.5243 74.9084 97.5243 77.1742C97.5243 79.44 95.6707 81.2938 93.4052 81.2938H64.2372L45.2895 98.0296C44.2597 98.9308 42.9725 99.42 41.6338 99.42C40.8615 99.42 40.0892 99.2655 39.3426 98.9308C37.3603 98.0296 36.0989 96.0471 36.1246 93.8843L36.2533 81.3195H26.4191C22.7377 81.3195 19.7514 78.3328 19.7514 74.651V25.8338H9.11905C6.85357 25.8338 5 23.98 5 21.7142C5 19.4485 6.85357 17.5946 9.11905 17.5946H19.7514V8.11959C19.7514 5.85382 21.6049 4 23.8704 4C26.1359 4 27.9895 5.85382 27.9895 8.11959V17.5946H50.2839H51.0562Z" fill="#39D3C6"/>
<path d="M91.706 38.9393H62.7439C60.4785 38.9393 58.6249 40.7931 58.6249 43.0589C58.6249 45.3246 60.4785 47.1785 62.7439 47.1785H78.4478L61.225 57.8121C59.5517 58.7648 58.6506 60.6959 59.0368 62.6269C59.4744 64.6867 61.3023 66.2058 63.4133 66.2058H93.4309C95.6964 66.2058 97.55 64.352 97.55 62.0862C97.55 59.8204 95.6964 57.9666 93.4309 57.9666H76.6715L93.8943 47.3329C95.5677 46.3803 96.4687 44.4492 96.0825 42.5182C95.6706 40.4326 93.8171 38.9393 91.706 38.9393Z" fill="#39D3C6"/>
</g>
<defs>
<clipPath id="clip0_1141_64">
<rect width="92.55" height="95.42" fill="white" transform="translate(5 4)"/>
</clipPath>
</defs>
</svg>
