<svg width="28" height="28" viewBox="0 0 28 28" fill="none" xmlns="http://www.w3.org/2000/svg">
<path d="M26.8332 22.1667C26.8332 22.7855 26.5873 23.379 26.1498 23.8166C25.7122 24.2542 25.1187 24.5 24.4998 24.5H3.49984C2.881 24.5 2.28751 24.2542 1.84992 23.8166C1.41234 23.379 1.1665 22.7855 1.1665 22.1667V9.33333C1.1665 8.71449 1.41234 8.121 1.84992 7.68342C2.28751 7.24583 2.881 7 3.49984 7H8.1665L10.4998 3.5H17.4998L19.8332 7H24.4998C25.1187 7 25.7122 7.24583 26.1498 7.68342C26.5873 8.121 26.8332 8.71449 26.8332 9.33333V22.1667Z" fill="#39D3C6"/>
<path d="M14.0002 19.8333C16.5775 19.8333 18.6668 17.744 18.6668 15.1667C18.6668 12.5893 16.5775 10.5 14.0002 10.5C11.4228 10.5 9.3335 12.5893 9.3335 15.1667C9.3335 17.744 11.4228 19.8333 14.0002 19.8333Z" stroke="white" stroke-width="1.6" stroke-linecap="round" stroke-linejoin="round"/>
</svg>
